# xmcd CD database file
#
# Track frame offsets:
#	150
#	32358
#	55366
#	86918
#	109850
#	136385
#	163501
#	184334
#	203739
#	221769
#	245507
#
# Disc length: 3502 seconds
#
# Revision: 2
# Processed by: cddbd v1.5.2PL0 Copyright (c) Steve Scherf et al.
# Submitted via: CDex 1.70beta2
#
DISCID=9e0dac0b
DTITLE=CafePrag - Compilation Volume Two "Cafe de luxe"
DYEAR=2005
DGENRE=Jazz
TTITLE0=Phisbacher - EZ Breezie
TTITLE1=Thomas Siffling - Einsamkeit
TTITLE2=Fritz Muenzer - Moonface
TTITLE3=Vibe tribe trio - Son de la Loma
TTITLE4=Blairman, Schoenborn, Simpson - Glory of Love
TTITLE5=Glaser - Sperrfechter - Don't know Blues
TTITLE6=Stephan Holstein Trio - Walzer
TTITLE7=Dirk Bluemlein - Wer ist Gary Barttz?
TTITLE8=Nicole Metzger - Wesley G - I fall in love to easily
TTITLE9=Wunsch - Strauch 6-tet - Everybody's Song but my own
TTITLE10=Tobias Langguth - Mas Que nade
EXTD=Café Prag: The Most Beautiful Café In Mannheim (Germany) -- ... And There It Is, The Corresponding (Fore-/) Background Music YEAR: 2005
EXTT0=
EXTT1=
EXTT2=
EXTT3=
EXTT4=
EXTT5=
EXTT6=
EXTT7=
EXTT8=
EXTT9=
EXTT10=
PLAYORDER=
